<svg xmlns="http://www.w3.org/2000/svg" version="1.1" xmlns:xlink="http://www.w3.org/1999/xlink" viewBox="0 0 14.62318177696788 12.266467320084189"><g transform="matrix(0.8455392452612485,0,0,0.8455392452612485,2.076697747095425,9.509329489679281)"><g transform="matrix(1,0,0,1,0,0)" clip-path="url(#SvgjsClipPath7032)"><g clip-path="url(#a52cc1118-6d6d-4bdf-8eda-ca3124a5f0b08f82ebea-b2c9-452b-88f1-e961f0228342)"><path d=" M 0.10429314091859535 -5.400581054557179 L 0.10429314091859535 -7.638383263842684 C 0.10429314091859535 -8.272214112726722 0.3031644452455607 -8.785893548579887 0.7006927529250012 -9.179493005060339 C 1.0983639279207684 -9.573163895198954 1.665190005447518 -9.817181271485202 2.4011709855052494 -9.911616567577246 L 2.4011709855052494 -8.896044249467883 C 2.0430740571320176 -8.817324358171792 1.7861986223763533 -8.687386533972528 1.6306875485545849 -8.506373644186418 C 1.4751764747328164 -8.32536075440031 1.3974566546510139 -8.06548510600178 1.3974566546510139 -7.726960999965327 L 2.4011709855052494 -7.726960999965327 L 2.4011709855052494 -5.400581054557179 Z" fill="#8fb0a1" transform="matrix(1,0,0,1,0,0)" fill-rule="nonzero"></path></g><g clip-path="url(#a52cc1118-6d6d-4bdf-8eda-ca3124a5f0b08f82ebea-b2c9-452b-88f1-e961f0228342)"><path d=" M 4.698048830091904 -9.911545133919082 L 4.698048830091904 -7.673742924633578 C 4.698048830091904 -7.039912075749539 4.499177525764939 -6.526232639896375 4.101649218085497 -6.132633183415923 C 3.70397804308973 -5.738962293277307 3.137151965562981 -5.494944916991059 2.40117098550525 -5.400509620899016 L 2.40117098550525 -6.416081939008379 C 2.7592679138784817 -6.4948018303044694 3.016143348634145 -6.624739654503733 3.171654422455914 -6.805752544289843 C 3.3271654962776824 -6.986765434075953 3.4048853163594854 -7.246641082474481 3.4048853163594854 -7.585165188510935 L 2.40117098550525 -7.585165188510935 L 2.40117098550525 -9.911545133919082 Z" fill="#769687" transform="matrix(1,0,0,1,0,0)" fill-rule="nonzero"></path></g><g clip-path="url(#a52cc1118-6d6d-4bdf-8eda-ca3124a5f0b08f82ebea-b2c9-452b-88f1-e961f0228342)"><path d=" M 0.10429314091859535 -0.8895455415371138 L 0.10429314091859535 -3.1273477508226177 C 0.10429314091859535 -3.761178599706656 0.3031644452455607 -4.27485803555982 0.7006927529250012 -4.668457492040273 C 1.0983639279207684 -5.062128382178889 1.665190005447518 -5.306145758465137 2.4011709855052494 -5.40058105455718 L 2.4011709855052494 -4.385008736447817 C 2.0430740571320176 -4.306288845151726 1.7861986223763533 -4.176351020952462 1.6306875485545849 -3.9953381311663527 C 1.4751764747328164 -3.814325241380242 1.3974566546510139 -3.5544495929817153 1.3974566546510139 -3.2159254869452596 L 2.4011709855052494 -3.2159254869452596 L 2.4011709855052494 -0.8895455415371138 Z" fill="#769687" transform="matrix(1,0,0,1,0,0)" fill-rule="nonzero"></path></g><g clip-path="url(#a52cc1118-6d6d-4bdf-8eda-ca3124a5f0b08f82ebea-b2c9-452b-88f1-e961f0228342)"><path d=" M 4.698048830091904 -5.397509407256152 L 4.698048830091904 -3.159707197970648 C 4.698048830091904 -2.5258763490866087 4.499177525764939 -2.0121969132334456 4.101649218085497 -1.618597456752993 C 3.70397804308973 -1.2249265666143767 3.137151965562981 -0.9809091903281288 2.40117098550525 -0.8864738942360848 L 2.40117098550525 -1.9020462123454482 C 2.7592679138784817 -1.980766103641538 3.016143348634145 -2.1107039278408024 3.171654422455914 -2.291716817626912 C 3.3271654962776824 -2.4727297074130217 3.4048853163594854 -2.7326053558115495 3.4048853163594854 -3.0711294618480034 L 2.40117098550525 -3.0711294618480034 L 2.40117098550525 -5.397509407256152 Z" fill="#8fb0a1" transform="matrix(1,0,0,1,0,0)" fill-rule="nonzero"></path></g></g><g><path d=" M 0.09 1.005 L 0.09 0.9809999999999999 L 0.2115 0.9209999999999999 L 0.2115 0.09899999999999987 L 0.09 0.038999999999999924 L 0.09 0.014999999999999902 L 0.5055000000000001 0.014999999999999902 L 0.5055000000000001 0.038999999999999924 L 0.369 0.09899999999999987 L 0.369 0.9224999999999999 L 0.7245 0.9224999999999999 L 0.8310000000000001 0.6644999999999999 L 0.855 0.6644999999999999 L 0.855 1.005 L 0.09 1.005 M 0.9974362792968751 1.005 L 0.9974362792968751 0.9809999999999999 L 1.091936279296875 0.9314999999999999 L 1.477436279296875 0.00749999999999984 L 1.559936279296875 0.00749999999999984 L 1.9409362792968752 0.9269999999999999 L 2.041436279296875 0.9809999999999999 L 2.041436279296875 1.005 L 1.645436279296875 1.005 L 1.645436279296875 0.9809999999999999 L 1.7774362792968752 0.9284999999999999 L 1.666436279296875 0.6584999999999999 L 1.304936279296875 0.6584999999999999 L 1.195436279296875 0.9299999999999999 L 1.321436279296875 0.9809999999999999 L 1.321436279296875 1.005 L 0.9974362792968751 1.005 M 1.339436279296875 0.5759999999999998 L 1.633436279296875 0.5759999999999998 L 1.486436279296875 0.2144999999999999 L 1.339436279296875 0.5759999999999998 M 2.194408447265625 1.005 L 2.194408447265625 0.9809999999999999 L 2.3144084472656252 0.9209999999999999 L 2.345908447265625 0.09899999999999987 L 2.216908447265625 0.038999999999999924 L 2.216908447265625 0.014999999999999902 L 2.5154084472656253 0.014999999999999902 L 2.851408447265625 0.7904999999999999 L 3.185908447265625 0.014999999999999902 L 3.472408447265625 0.014999999999999902 L 3.472408447265625 0.038999999999999924 L 3.3449084472656248 0.09449999999999992 L 3.370408447265625 0.9209999999999999 L 3.4784084472656254 0.9809999999999999 L 3.4784084472656254 1.005 L 3.107908447265625 1.005 L 3.107908447265625 0.9809999999999999 L 3.2204084472656254 0.9224999999999999 L 3.205408447265625 0.18899999999999983 L 2.851408447265625 1.0125 L 2.779408447265625 1.0125 L 2.428408447265625 0.19799999999999984 L 2.408908447265625 0.9224999999999999 L 2.533408447265625 0.9809999999999999 L 2.533408447265625 1.005 L 2.194408447265625 1.005 M 3.682434814453125 1.005 L 3.682434814453125 0.9809999999999999 L 3.805434814453125 0.9209999999999999 L 3.805434814453125 0.09899999999999987 L 3.682434814453125 0.038999999999999924 L 3.682434814453125 0.014999999999999902 L 4.082934814453125 0.014999999999999902 L 4.082934814453125 0.038999999999999924 L 3.961434814453125 0.09899999999999987 L 3.961434814453125 0.9209999999999999 L 4.082934814453125 0.9809999999999999 L 4.082934814453125 1.005 L 3.682434814453125 1.005 M 4.286964111328125 1.005 L 4.286964111328125 0.9809999999999999 L 4.408464111328125 0.9209999999999999 L 4.408464111328125 0.10199999999999987 L 4.288464111328125 0.038999999999999924 L 4.288464111328125 0.014999999999999902 L 4.523964111328125 0.014999999999999902 L 5.098464111328125 0.7214999999999998 L 5.098464111328125 0.09749999999999992 L 4.943964111328125 0.038999999999999924 L 4.943964111328125 0.014999999999999902 L 5.323464111328125 0.014999999999999902 L 5.323464111328125 0.038999999999999924 L 5.203464111328125 0.09749999999999992 L 5.203464111328125 1.0125 L 5.138964111328125 1.0125 L 4.513464111328125 0.24449999999999983 L 4.513464111328125 0.9224999999999999 L 4.667964111328125 0.9809999999999999 L 4.667964111328125 1.005 L 4.286964111328125 1.005 M 5.5079736328125 1.005 L 5.5079736328125 0.9809999999999999 L 5.6294736328125 0.9209999999999999 L 5.6294736328125 0.09899999999999987 L 5.5079736328125 0.038999999999999924 L 5.5079736328125 0.014999999999999902 L 6.2609736328125 0.014999999999999902 L 6.2609736328125 0.2729999999999999 L 6.2369736328125 0.2729999999999999 L 6.1394736328125 0.09749999999999992 L 5.7869736328125 0.09749999999999992 L 5.7869736328125 0.45299999999999985 L 6.0359736328125 0.45299999999999985 L 6.1124736328125 0.32699999999999985 L 6.1364736328125 0.32699999999999985 L 6.1364736328125 0.6584999999999999 L 6.1124736328125 0.6584999999999999 L 6.0359736328125 0.5354999999999999 L 5.7869736328125 0.5354999999999999 L 5.7869736328125 0.9224999999999999 L 6.1799736328125 0.9224999999999999 L 6.2789736328125 0.7244999999999999 L 6.3029736328125 0.7244999999999999 L 6.3029736328125 1.005 L 5.5079736328125 1.005 M 7.228468505859375 1.0199999999999998 Q 7.133968505859375 1.0199999999999998 7.067218505859375 1.002 Q 7.000468505859375 0.9839999999999999 6.929968505859375 0.9494999999999999 L 6.914968505859375 0.702 L 6.938968505859375 0.702 L 7.018468505859375 0.8654999999999999 Q 7.070968505859375 0.9089999999999999 7.121968505859375 0.9284999999999999 Q 7.172968505859375 0.9479999999999998 7.223968505859375 0.9479999999999998 Q 7.310968505859375 0.9479999999999998 7.361218505859375 0.9029999999999999 Q 7.411468505859375 0.8579999999999999 7.411468505859375 0.7799999999999999 Q 7.411468505859375 0.7184999999999999 7.383718505859375 0.6817499999999999 Q 7.355968505859375 0.6449999999999999 7.301218505859375 0.6157499999999999 Q 7.246468505859375 0.5864999999999999 7.1669685058593755 0.5474999999999999 Q 7.060468505859375 0.49649999999999983 7.0034685058593755 0.4402499999999999 Q 6.946468505859375 0.3839999999999999 6.946468505859375 0.2819999999999999 Q 6.946468505859375 0.22799999999999987 6.972718505859375 0.17774999999999985 Q 6.998968505859375 0.12749999999999984 7.043968505859375 0.08774999999999988 Q 7.088968505859375 0.04799999999999982 7.1444685058593755 0.02399999999999991 Q 7.199968505859375 -2.220446049250313e-16 7.2599685058593755 -2.220446049250313e-16 Q 7.3304685058593755 -2.220446049250313e-16 7.391968505859375 0.016499999999999848 Q 7.453468505859375 0.03299999999999992 7.513468505859375 0.06449999999999989 L 7.528468505859375 0.3044999999999999 L 7.504468505859375 0.3044999999999999 L 7.426468505859376 0.1439999999999999 Q 7.3784685058593755 0.10649999999999993 7.339468505859375 0.08999999999999986 Q 7.300468505859375 0.0734999999999999 7.250968505859375 0.0734999999999999 Q 7.186468505859375 0.0734999999999999 7.1437185058593755 0.11699999999999988 Q 7.100968505859375 0.16049999999999986 7.100968505859375 0.22649999999999992 Q 7.100968505859375 0.29999999999999993 7.146718505859376 0.34199999999999986 Q 7.192468505859376 0.3839999999999999 7.294468505859375 0.43199999999999983 Q 7.384468505859375 0.4754999999999999 7.443718505859375 0.5152499999999999 Q 7.502968505859375 0.5549999999999999 7.531468505859375 0.6044999999999998 Q 7.559968505859375 0.6539999999999999 7.559968505859375 0.7304999999999999 Q 7.559968505859375 0.8009999999999999 7.529968505859375 0.8549999999999999 Q 7.499968505859375 0.9089999999999999 7.450468505859375 0.9457499999999999 Q 7.4009685058593755 0.9824999999999999 7.343218505859375 1.00125 Q 7.2854685058593756 1.0199999999999998 7.228468505859375 1.0199999999999998 M 7.694977294921875 1.005 L 7.694977294921875 0.9809999999999999 L 7.789477294921875 0.9314999999999999 L 8.174977294921876 0.00749999999999984 L 8.257477294921875 0.00749999999999984 L 8.638477294921875 0.9269999999999999 L 8.738977294921876 0.9809999999999999 L 8.738977294921876 1.005 L 8.342977294921875 1.005 L 8.342977294921875 0.9809999999999999 L 8.474977294921874 0.9284999999999999 L 8.363977294921876 0.6584999999999999 L 8.002477294921874 0.6584999999999999 L 7.8929772949218755 0.9299999999999999 L 8.018977294921875 0.9809999999999999 L 8.018977294921875 1.005 L 7.694977294921875 1.005 M 8.036977294921876 0.5759999999999998 L 8.330977294921876 0.5759999999999998 L 8.183977294921876 0.2144999999999999 L 8.036977294921876 0.5759999999999998 M 8.897949462890626 1.005 L 8.897949462890626 0.9809999999999999 L 9.019449462890625 0.9209999999999999 L 9.019449462890625 0.09899999999999987 L 8.897949462890626 0.038999999999999924 L 8.897949462890626 0.014999999999999902 L 9.298449462890627 0.014999999999999902 L 9.298449462890627 0.038999999999999924 L 9.176949462890626 0.09899999999999987 L 9.176949462890626 0.9209999999999999 L 9.298449462890627 0.9809999999999999 L 9.298449462890627 1.005 L 8.897949462890626 1.005 M 9.176949462890626 0.49949999999999983 L 9.590949462890626 0.08999999999999986 L 9.484449462890627 0.038999999999999924 L 9.484449462890627 0.014999999999999902 L 9.808449462890627 0.014999999999999902 L 9.808449462890627 0.038999999999999924 L 9.713949462890627 0.0764999999999999 L 9.329949462890626 0.45299999999999985 L 9.791949462890626 0.9404999999999999 L 9.886449462890626 0.9809999999999999 L 9.886449462890626 1.005 L 9.641949462890626 1.005 L 9.176949462890626 0.49949999999999983 M 10.019941406250002 1.005 L 10.019941406250002 0.9809999999999999 L 10.141441406250001 0.9209999999999999 L 10.141441406250001 0.09899999999999987 L 10.019941406250002 0.038999999999999924 L 10.019941406250002 0.014999999999999902 L 10.417441406250003 0.014999999999999902 L 10.417441406250003 0.038999999999999924 L 10.298941406250002 0.09899999999999987 L 10.298941406250002 0.45299999999999985 L 10.786441406250002 0.45299999999999985 L 10.786441406250002 0.09899999999999987 L 10.666441406250001 0.038999999999999924 L 10.666441406250001 0.014999999999999902 L 11.063941406250002 0.014999999999999902 L 11.063941406250002 0.038999999999999924 L 10.942441406250001 0.09899999999999987 L 10.942441406250001 0.9209999999999999 L 11.063941406250002 0.9809999999999999 L 11.063941406250002 1.005 L 10.666441406250001 1.005 L 10.666441406250001 0.9809999999999999 L 10.786441406250002 0.9209999999999999 L 10.786441406250002 0.5354999999999999 L 10.298941406250002 0.5354999999999999 L 10.298941406250002 0.9209999999999999 L 10.417441406250003 0.9809999999999999 L 10.417441406250003 1.005 L 10.019941406250002 1.005 M 11.779409912109378 1.0199999999999998 Q 11.671409912109377 1.0199999999999998 11.579159912109377 0.9817499999999999 Q 11.486909912109377 0.9434999999999999 11.418659912109378 0.8752499999999999 Q 11.350409912109377 0.8069999999999999 11.312909912109378 0.714 Q 11.275409912109378 0.6209999999999999 11.275409912109378 0.5099999999999999 Q 11.275409912109378 0.3989999999999999 11.312909912109378 0.3059999999999998 Q 11.350409912109377 0.21299999999999986 11.418659912109378 0.14474999999999982 Q 11.486909912109377 0.0764999999999999 11.579159912109377 0.038249999999999895 Q 11.671409912109377 -2.220446049250313e-16 11.779409912109378 -2.220446049250313e-16 Q 11.887409912109378 -2.220446049250313e-16 11.979659912109378 0.038249999999999895 Q 12.071909912109378 0.0764999999999999 12.140159912109379 0.14474999999999982 Q 12.208409912109378 0.21299999999999986 12.246659912109378 0.3059999999999998 Q 12.284909912109377 0.3989999999999999 12.284909912109377 0.5099999999999999 Q 12.284909912109377 0.6209999999999999 12.246659912109378 0.714 Q 12.208409912109378 0.8069999999999999 12.140159912109379 0.8752499999999999 Q 12.071909912109378 0.9434999999999999 11.979659912109378 0.9817499999999999 Q 11.887409912109378 1.0199999999999998 11.779409912109378 1.0199999999999998 M 11.809409912109379 0.9449999999999998 Q 11.900909912109379 0.9449999999999998 11.969909912109378 0.8969999999999999 Q 12.038909912109379 0.8489999999999999 12.077909912109378 0.7619999999999999 Q 12.116909912109378 0.6749999999999998 12.116909912109378 0.5564999999999999 Q 12.116909912109378 0.4109999999999999 12.068909912109378 0.3022499999999999 Q 12.020909912109378 0.1934999999999999 11.938409912109378 0.13349999999999984 Q 11.855909912109379 0.0734999999999999 11.755409912109378 0.0734999999999999 Q 11.663909912109379 0.0734999999999999 11.593409912109378 0.12074999999999991 Q 11.522909912109379 0.16799999999999993 11.483159912109379 0.2549999999999999 Q 11.443409912109377 0.34199999999999986 11.443409912109377 0.4604999999999999 Q 11.443409912109377 0.6059999999999999 11.492159912109377 0.7154999999999999 Q 11.540909912109377 0.825 11.624159912109377 0.8849999999999999 Q 11.707409912109378 0.9449999999999998 11.809409912109379 0.9449999999999998" fill="#fcf7ee" fill-rule="nonzero"></path></g><g></g></g><defs><clipPath id="SvgjsClipPath7032"><path d=" M 0 -9.005663228663183 h 4.920523401335842 v 8.755663228663183 h -4.920523401335842 Z"></path></clipPath><clipPath id="a52cc1118-6d6d-4bdf-8eda-ca3124a5f0b08f82ebea-b2c9-452b-88f1-e961f0228342"><path d=" M 0 -0.25 L 4.920493241612798 -0.25 L 4.920493241612798 -9.00562348109057 L 0 -9.00562348109057 Z"></path></clipPath></defs></svg>